<?xml version="1.0" encoding="UTF-8"?>
<svg id="Calque_2" data-name="Calque 2" xmlns="http://www.w3.org/2000/svg" viewBox="0 0 215.24 87.84">
  <defs>
    <style>
      .cls-1 {
        fill: #e35f0e;
        stroke-width: 0px;
      }
    </style>
  </defs>
  <g id="Calque_1-2" data-name="Calque 1">
    <g>
      <path class="cls-1" d="M57.2,86.68c-.69.78-1.69,1.16-3.01,1.16h-23.6c-9.36,0-17.27-3.75-23.75-11.24-4.56-5.7-6.84-12.14-6.84-19.34v-1.8c0-9.36,3.75-17.27,11.24-23.75,5.7-4.56,12.14-6.84,19.34-6.84h23.6c1.2,0,2.17.35,2.92,1.03.75.69,1.12,1.69,1.12,3.01v4.59c0,1.14-.34,2.1-1.03,2.88-.69.78-1.69,1.17-3.01,1.17h-15.68c-7.5,0-12,.54-13.49,1.62-1.92.54-4.32,2.22-7.2,5.05-3.24,4.09-4.86,8.15-4.86,12.17,0,5.35,2.52,10.22,7.56,14.61,3.3,2.77,8.25,4.15,14.84,4.15h18.83c1.14,0,2.1.34,2.88,1.03.78.69,1.17,1.68,1.17,2.99v4.64c0,1.13-.34,2.09-1.03,2.86Z"/>
      <path class="cls-1" d="M67.33,25.99c.69-.75,1.69-1.12,3.01-1.12h4.59c2.76,0,4.14,1.65,4.14,4.96v19.2c0,7.69.48,12.2,1.44,13.52,1.8,4.51,5.04,8.02,9.72,10.54,2.28,1.38,6.72,2.07,13.31,2.07h15.07c1.14,0,2.1.34,2.88,1.03.78.69,1.17,1.68,1.17,2.99v4.64c0,1.13-.34,2.09-1.03,2.86-.69.78-1.69,1.16-3.01,1.16h-21.73c-9.36,0-17.27-3.75-23.75-11.24-4.56-5.7-6.84-12.14-6.84-19.34v-28.34c0-1.2.34-2.17,1.03-2.92Z"/>
      <path class="cls-1" d="M133.63,25.99c.69-.75,1.69-1.12,3.01-1.12h4.59c1.14,0,2.08.35,2.83,1.03.75.69,1.12,1.69,1.12,3.01v54.87c0,1.14-.33,2.1-.99,2.88-.66.78-1.65,1.17-2.97,1.17h-4.59c-1.2,0-2.18-.34-2.92-1.03-.75-.69-1.12-1.69-1.12-3.01V28.92c0-1.2.34-2.17,1.03-2.92Z"/>
      <path class="cls-1" d="M214.2,86.68c-.69.78-1.69,1.16-3.01,1.16h-25.47c-9.36,0-17.27-3.75-23.75-11.24-4.56-5.7-6.84-12.14-6.84-19.34v-1.8c0-9.36,3.75-17.27,11.24-23.75,5.7-4.56,12.14-6.84,19.34-6.84h25.47c1.2,0,2.17.35,2.92,1.03.75.69,1.12,1.69,1.12,3.01v4.59c0,1.14-.34,2.1-1.03,2.88-.69.78-1.69,1.17-3.01,1.17h-17.56c-7.5,0-12,.54-13.49,1.62-1.92.54-4.32,2.22-7.2,5.05-3.24,4.09-4.86,8.15-4.86,12.17,0,5.35,2.52,10.22,7.56,14.61,3.3,2.77,8.25,4.15,14.84,4.15h20.71c1.14,0,2.1.34,2.88,1.03.78.69,1.17,1.68,1.17,2.99v4.64c0,1.13-.34,2.09-1.03,2.86Z"/>
    </g>
    <g>
      <rect class="cls-1" x="127.57" y="20.03" width="2.22" height="8.01" rx="1.11" ry="1.11" transform="translate(184.77 142.31) rotate(-125.95)"/>
      <rect class="cls-1" x="125.17" y="12.61" width="2.22" height="8.01" rx="1.11" ry="1.11" transform="translate(109.55 142.87) rotate(-89.95)"/>
      <rect class="cls-1" x="127.58" y="5.19" width="2.22" height="8.01" rx="1.11" ry="1.11" transform="translate(45.52 107.83) rotate(-53.95)"/>
      <rect class="cls-1" x="133.9" y=".61" width="2.22" height="8.01" rx="1.11" ry="1.11" transform="translate(5.15 41.83) rotate(-17.95)"/>
      <rect class="cls-1" x="141.7" y=".62" width="2.22" height="8.01" rx="1.11" ry="1.11" transform="translate(8.46 -44.02) rotate(18.05)"/>
      <rect class="cls-1" x="148" y="5.21" width="2.22" height="8.01" rx="1.11" ry="1.11" transform="translate(69.03 -116.91) rotate(54.05)"/>
      <rect class="cls-1" x="150.4" y="12.63" width="2.22" height="8.01" rx="1.11" ry="1.11" transform="translate(168.28 -134.86) rotate(90.05)"/>
      <rect class="cls-1" x="147.99" y="20.04" width="2.22" height="8.01" rx="1.11" ry="1.11" transform="translate(256.29 -82.34) rotate(126.05)"/>
    </g>
  </g>
</svg>